<?xml version="1.0" standalone="no"?>
<!DOCTYPE svg PUBLIC "-//W3C//DTD SVG 20010904//EN"
 "http://www.w3.org/TR/2001/REC-SVG-20010904/DTD/svg10.dtd">
<svg version="1.0" xmlns="http://www.w3.org/2000/svg"
 width="288.000000pt" height="288.000000pt" viewBox="0 0 288.000000 288.000000"
 preserveAspectRatio="xMidYMid meet">

<g transform="translate(0.000000,288.000000) scale(0.100000,-0.100000)"
fill="#000000" stroke="none">
<path d="M1436 2215 c4 -8 8 -15 10 -15 2 0 4 7 4 15 0 8 -4 15 -10 15 -5 0
-7 -7 -4 -15z"/>
<path d="M1470 2191 c0 -7 -4 -10 -9 -7 -12 8 -21 -87 -10 -99 7 -7 8 -3 3 9
-6 15 -4 17 6 11 9 -5 11 -4 6 3 -4 7 -2 28 3 49 6 20 8 39 6 42 -3 2 -5 -1
-5 -8z"/>
<path d="M1426 1958 c-11 -6 -38 -11 -60 -12 -35 -1 -42 -5 -44 -24 -2 -12 -8
-20 -13 -17 -5 4 6 -17 23 -46 l33 -52 -24 -16 c-49 -34 -101 -84 -101 -96 0
-8 -13 -23 -30 -35 -16 -12 -30 -28 -30 -36 0 -8 -9 -24 -20 -36 -31 -33 -47
-80 -46 -128 l2 -45 63 0 c43 0 65 5 71 15 7 11 13 12 36 2 14 -7 24 -15 21
-19 -4 -3 8 -13 26 -22 24 -13 40 -14 65 -7 30 9 42 32 26 49 -4 4 -8 23 -10
43 -2 20 -6 39 -9 43 -8 7 -24 -18 -31 -49 -15 -68 -72 -82 -61 -15 3 19 2 35
-3 35 -17 0 -21 35 -4 47 21 15 44 59 44 84 0 11 5 19 10 19 6 0 10 6 10 14 0
8 6 21 14 29 8 7 17 25 19 38 3 13 4 -5 1 -41 -4 -69 -1 -70 16 -2 11 43 31
49 29 9 0 -21 -1 -21 -9 -2 -6 15 -9 7 -8 -30 0 -39 2 -45 8 -25 7 22 8 20 9
-15 1 -22 8 -49 16 -59 17 -23 21 -146 5 -146 -5 0 -10 -4 -10 -10 0 -5 13
-10 28 -10 15 0 32 -4 37 -9 6 -5 28 -12 51 -16 39 -6 43 -4 91 43 l50 49 -16
31 c-18 34 -40 74 -62 112 -17 30 -117 161 -121 160 -13 -5 -38 15 -34 26 3 8
1 14 -4 14 -5 0 -8 22 -7 49 1 27 5 44 9 38 4 -7 8 7 8 31 0 23 -4 42 -9 42
-5 0 -15 2 -23 5 -7 2 -22 -1 -32 -7z m-66 -270 c0 -10 -9 -27 -19 -37 -18
-18 -20 -18 -23 -3 -2 9 3 23 12 29 13 11 13 14 0 22 -12 8 -10 10 8 8 14 -1
22 -8 22 -19z m130 -28 c0 13 2 13 9 0 6 -8 8 -17 5 -21 -5 -9 -44 1 -44 10 0
16 14 21 22 9 6 -10 8 -9 8 2z m-200 -7 c0 -5 -7 -17 -15 -27 -12 -16 -18 -17
-27 -8 -9 9 -8 12 4 12 9 0 18 7 22 15 6 16 16 21 16 8z m265 -37 c0 -27 -15
-49 -15 -23 0 8 -3 22 -6 31 -4 10 -1 16 8 16 8 0 14 -10 13 -24z m-45 -18 c0
-13 -23 -5 -28 10 -2 7 2 10 12 6 9 -3 16 -11 16 -16z m-253 -26 c-10 -10 -17
-25 -17 -32 0 -10 -3 -11 -11 -3 -8 8 -4 17 13 35 26 28 40 28 15 0z m28 -12
c3 -5 1 -10 -4 -10 -6 0 -11 5 -11 10 0 6 2 10 4 10 3 0 8 -4 11 -10z m-67
-42 c-2 -5 -8 -9 -13 -8 -5 1 -12 -7 -16 -17 -7 -16 -8 -16 -8 3 -1 11 1 23 4
26 9 8 36 5 33 -4z m372 2 c0 -5 -2 -10 -4 -10 -3 0 -8 5 -11 10 -3 6 -1 10 4
10 6 0 11 -4 11 -10z m20 -70 c0 -5 -4 -10 -10 -10 -5 0 -10 5 -10 10 0 6 5
10 10 10 6 0 10 -4 10 -10z m-415 -10 c-3 -5 -12 -10 -18 -10 -7 0 -6 4 3 10
19 12 23 12 15 0z"/>
<path d="M1451 1544 c0 -11 3 -14 6 -6 3 7 2 16 -1 19 -3 4 -6 -2 -5 -13z"/>
<path d="M1320 1510 c0 -5 5 -10 11 -10 5 0 7 5 4 10 -3 6 -8 10 -11 10 -2 0
-4 -4 -4 -10z"/>
<path d="M839 1011 c36 -23 14 -305 -29 -378 -23 -39 -10 -44 18 -8 31 40 47
120 47 246 0 115 -9 149 -39 149 -6 0 -5 -4 3 -9z"/>
<path d="M1309 998 c-20 -37 -39 -120 -39 -171 0 -27 -5 -57 -10 -68 -7 -13
-7 -19 0 -19 5 0 10 -20 10 -45 0 -25 5 -45 10 -45 6 0 10 3 10 8 4 224 9 291
23 325 17 40 15 50 -4 15z"/>
<path d="M1794 995 c-45 -69 -63 -269 -30 -332 21 -42 40 -43 19 -2 -28 55 -7
300 30 347 5 6 7 12 3 12 -3 0 -13 -11 -22 -25z"/>
<path d="M1650 970 c-31 -60 -48 -201 -35 -280 11 -68 29 -110 46 -110 5 0 2
11 -7 24 -27 43 -21 296 10 370 20 48 12 46 -14 -4z"/>
<path d="M937 833 c-16 -15 2 -118 23 -133 16 -12 31 -52 25 -70 -4 -11 -2
-20 4 -20 24 0 21 42 -8 101 -33 65 -38 98 -19 117 9 9 9 12 -3 12 -9 0 -19
-3 -22 -7z"/>
<path d="M1156 788 c-13 -68 -1 -138 24 -138 6 0 5 8 -1 18 -8 13 -9 38 -2 85
7 51 7 67 -3 67 -6 0 -15 -15 -18 -32z"/>
<path d="M1478 803 c-28 -33 -35 -57 -26 -90 8 -30 48 -67 48 -44 0 5 -5 11
-11 13 -6 2 -13 21 -16 43 -3 29 2 46 17 67 22 30 13 39 -12 11z"/>
<path d="M1979 818 c-13 -40 -11 -140 4 -155 9 -9 12 6 14 73 1 46 -3 84 -8
84 -5 0 -9 -1 -10 -2z"/>
<path d="M1073 788 c-42 -47 -37 -109 10 -107 17 1 18 2 5 6 -23 6 -23 39 1
86 21 42 15 48 -16 15z"/>
<path d="M1370 795 c15 -18 7 -109 -11 -131 -7 -8 -9 -17 -7 -20 8 -7 48 46
49 65 4 55 -9 101 -27 101 -14 0 -14 -3 -4 -15z"/>
<path d="M1890 788 c-40 -43 -37 -99 6 -106 15 -2 16 -1 5 6 -18 13 -9 77 15
103 9 11 12 19 6 19 -6 0 -21 -10 -32 -22z"/>
<path d="M1185 500 c3 -5 8 -10 11 -10 2 0 4 5 4 10 0 6 -5 10 -11 10 -5 0 -7
-4 -4 -10z"/>
<path d="M1598 463 c5 -83 9 -90 11 -20 0 37 -2 67 -7 67 -4 0 -6 -21 -4 -47z"/>
<path d="M1831 448 c0 -38 2 -68 7 -68 4 0 6 21 4 48 -5 82 -9 89 -11 20z"/>
<path d="M1422 455 c0 -16 2 -22 5 -12 2 9 2 23 0 30 -3 6 -5 -1 -5 -18z"/>
<path d="M1192 420 c0 -19 2 -27 5 -17 2 9 2 25 0 35 -3 9 -5 1 -5 -18z"/>
<path d="M1682 415 c0 -16 2 -22 5 -12 2 9 2 23 0 30 -3 6 -5 -1 -5 -18z"/>
<path d="M1922 410 c0 -14 2 -19 5 -12 2 6 2 18 0 25 -3 6 -5 1 -5 -13z"/>
<path d="M1420 395 c0 -14 4 -25 9 -25 4 0 6 11 3 25 -2 14 -6 25 -8 25 -2 0
-4 -11 -4 -25z"/>
</g>
</svg>
